<svg width="138" height="21" viewBox="0 0 138 21" fill="none" xmlns="http://www.w3.org/2000/svg">
<path d="M81.3287 16.7688C82.9303 10.8607 85.6419 0.862606 85.8728 0H91.4971L87.2808 15.843C87.2547 15.9471 87.277 16.0586 87.3403 16.1441C87.4074 16.2296 87.508 16.278 87.616 16.278H93.2403C93.2403 16.278 92.1452 20.42 91.9999 20.9703H84.5505C83.5114 20.9703 82.5318 20.4869 81.8986 19.6652C81.2691 18.8398 81.0568 17.7689 81.3287 16.7688Z" fill="black"/>
<path d="M118.382 20.9703C115.804 20.9703 113.83 19.245 113.722 16.3635C113.588 12.7123 113.745 7.58499 113.685 5.64784C113.678 5.43962 113.626 5.32064 113.547 5.25372C113.488 5.20538 113.417 5.18307 113.328 5.18307C113.257 5.18307 113.193 5.19423 113.134 5.23141C113.056 5.27975 112.981 5.38014 112.922 5.59207C112.493 7.16484 110.817 13.3035 110.191 15.6013C109.495 18.1593 107.405 20.9703 103.919 20.9703H94.3204L98.1606 6.89713H103.736C103.461 7.92334 101.178 16.3486 101.178 16.3486C101.17 16.3709 101.178 16.397 101.192 16.4193C101.207 16.4379 101.23 16.449 101.256 16.449H103.483C103.822 16.449 104.079 16.3709 104.284 16.2259C104.582 16.0103 104.768 15.6422 104.917 15.1291L109.044 0H114.564C115.667 0 116.602 0.275142 117.276 0.851452C117.946 1.42776 118.352 2.30524 118.404 3.50992C118.524 6.22787 118.527 13.5228 118.613 15.7909C118.624 16.0772 118.754 16.2482 118.978 16.2519C119.194 16.2557 119.302 16.1218 119.384 15.8281C119.946 13.7348 122.04 5.95273 122.721 3.46902C123.228 1.60995 124.785 0 127.329 0H138C137.832 0.639518 136.909 4.11969 136.778 4.62164H129.005C128.558 4.62164 128.197 4.72946 127.917 4.94511C127.634 5.16077 127.437 5.48052 127.31 5.91183L123.205 20.9703H118.382Z" fill="black"/>
<path d="M126.528 20.9704C126.528 20.9704 130.04 8.19857 130.312 7.2207H135.992C135.992 7.2207 132.528 19.9888 132.264 20.9704H126.528Z" fill="black"/>
<path d="M32.7624 0C35.9396 0 37.638 2.88899 36.7404 6.14979L34.1256 15.6013C33.1684 19.0814 31.2241 20.9703 27.9985 20.9703H23.7337C20.5566 20.9703 18.9996 17.9772 19.8414 14.8205C20.4039 12.716 21.7299 7.90846 21.8937 7.321C22.445 7.32472 26.5347 7.33959 27.2424 7.34331C27.2424 7.34331 25.2944 14.6643 25.2758 14.735C25.0821 15.4265 25.1491 15.9508 25.421 16.2557C25.6073 16.4676 25.8866 16.5829 26.2554 16.5829H27.1381C27.9948 16.5829 28.587 15.8281 28.8626 14.7907C28.8738 14.7424 31.0788 6.63686 31.0975 6.57366C31.3358 5.72592 31.2725 5.16077 30.9634 4.84472C30.7548 4.62907 30.4345 4.52125 30.0061 4.52125H22.6796C23.6592 0.985304 26.1958 0 28.5647 0H32.7624Z" fill="black"/>
<path d="M34.8818 20.9703L36.1371 16.4341H42.849C43.2103 16.4341 43.4561 16.2966 43.6013 16.0884C43.8137 15.7835 43.8062 15.315 43.5976 14.88L40.156 7.95308C39.0945 5.79657 39.1429 3.36491 40.3832 1.75868C41.2101 0.69529 42.5659 0 44.4655 0H52.4996C52.332 0.632082 51.4456 4.01186 51.3152 4.50637H45.9069C45.4898 4.50637 45.1806 4.67369 45.0354 4.95627C44.8901 5.23141 44.9013 5.62553 45.1285 6.0903C45.7617 7.37305 48.4397 12.7866 48.4509 12.8127C50.0451 16.0549 48.4584 20.974 43.8472 20.974L34.8818 20.9703Z" fill="black"/>
<path d="M73.5851 16.4639C73.5777 16.5011 73.5442 16.5234 73.5069 16.5234H71.0039C70.5569 16.5234 70.2441 16.3523 70.069 16.0772C69.8977 15.8095 69.8604 15.434 69.9871 15.0101C69.9982 14.9655 70.4303 13.3518 70.583 12.7643C70.6799 12.3851 70.8326 12.1062 71.0486 11.9166C71.2721 11.727 71.5626 11.634 71.95 11.634H74.7808C74.8068 11.634 74.8292 11.6452 74.8441 11.6675C74.859 11.6861 74.8664 11.7121 74.859 11.7381L73.5851 16.4639ZM78.0324 0H58.8465C56.7234 0 55.2745 0.699008 54.4141 1.77355C53.1216 3.3835 53.1663 5.83003 54.2428 7.98283L57.7999 14.8502C58.0494 15.3522 58.0643 15.75 57.9153 16.0251C57.7626 16.304 57.4386 16.4639 56.9916 16.4639H51.1401L50.0302 20.9703H58.0494C62.6569 20.9703 64.1281 16.0772 62.5638 12.8387C62.5302 12.7755 59.2115 6.11632 59.2115 6.11632C59.2115 6.11632 59.2115 6.11632 59.2115 6.11261C58.9918 5.64412 58.9694 5.25372 59.1072 4.97858C59.2488 4.696 59.5579 4.52868 60.0198 4.52868H75.414C75.7939 4.52868 76.103 4.68856 76.293 4.9414C76.4829 5.19423 76.5574 5.54001 76.4606 5.91926C76.4606 5.91926 76.4606 5.91926 76.4606 5.92298L76.0174 7.47716C76.0099 7.51434 75.9764 7.53665 75.9391 7.53665H70.5905C68.337 7.53665 66.7615 8.74132 66.2102 10.7082L65.0816 14.7573C65.0816 14.7573 65.0816 14.7573 65.0816 14.761C64.5751 16.4788 64.7241 18.0404 65.4578 19.1744C66.1916 20.301 67.5064 21 69.3278 21H77.7791L81.9806 5.4136C82.7926 2.47999 80.8036 0 78.0324 0Z" fill="black"/>
<path d="M14.1427 6.05316L13.9192 6.87115C13.7739 7.38425 13.5318 7.7226 13.2301 7.94197C12.7794 8.26916 12.1798 8.33609 11.4944 8.33609H8.96162C8.93555 8.33609 8.9132 8.32493 8.8983 8.30263C8.8834 8.28403 8.87595 8.25801 8.8834 8.23198L9.95984 4.34653C9.97101 4.30935 10.0008 4.28704 10.0381 4.28704H12.7459C13.2897 4.28704 13.7181 4.4209 13.9713 4.70719C14.2321 4.98977 14.314 5.42851 14.1427 6.05316ZM12.2394 14.1141L11.9637 15.17C11.8296 15.672 11.636 16.014 11.3678 16.2483C10.9655 16.5941 10.3845 16.7019 9.52777 16.7019H6.73053C6.70445 16.7019 6.68211 16.6907 6.66721 16.6721C6.65231 16.6498 6.64858 16.6275 6.65231 16.6015L7.80696 12.3108C7.81441 12.2773 7.84794 12.2513 7.88518 12.2513H10.9022C11.446 12.2513 11.8669 12.426 12.1053 12.7458C12.3436 13.0618 12.4107 13.5266 12.2394 14.1141ZM19.536 1.4687C18.8432 0.565196 17.6886 0.0297852 16.262 0.0297852H5.62057L0 21H11.3827C14.6343 21 16.7239 18.7357 17.4502 16.0438L17.8897 14.2814C18.359 12.4669 17.4018 10.8533 15.8039 10.329C15.7033 10.2955 15.6735 10.2212 15.681 10.1654C15.6884 10.1059 15.7368 10.0464 15.8337 10.0353C17.8078 9.8159 19.0742 8.71162 19.6217 6.65178L20.0351 5.0976C20.4523 3.64009 20.2251 2.37221 19.536 1.4687Z" fill="black"/>
<path d="M98.5778 4.62164L99.8367 0H105.45L104.206 4.62164H98.5778Z" fill="black"/>
</svg>
